<svg xmlns="http://www.w3.org/2000/svg" xmlns:xlink="http://www.w3.org/1999/xlink" style="isolation:isolate" width="1840" height="960" viewBox="0 0 1380 720"><defs><clipPath id="_clipPath_zPh7BxI0YYIdebuChvAMvLzeR3zzvycY"><rect width="1380" height="720"/></clipPath></defs><g clip-path="url(#_clipPath_zPh7BxI0YYIdebuChvAMvLzeR3zzvycY)"><path fill="#5E958F" d="M 494 251.5 C 494 134.218 572.718 114.5 690 114.5 C 807.282 114.5 886 134.218 886 251.5 C 886 368.782 807.282 682 690 682 C 572.718 682 494 368.782 494 251.5 Z"/><circle cx="688.875" cy="307.875" r="162.125" fill="#EBEBEB" vector-effect="non-scaling-stroke"/><defs><filter id="3FJuuhDnD2VAkCoteuqPjjFZ7nupHh72" width="400%" height="400%" x="-200%" y="-200%" color-interpolation-filters="sRGB" filterUnits="objectBoundingBox"><feGaussianBlur xmlns="http://www.w3.org/2000/svg" in="SourceGraphic" stdDeviation="4.294"/><feOffset xmlns="http://www.w3.org/2000/svg" dx="0" dy="0" result="pf_100_offsetBlur"/><feFlood xmlns="http://www.w3.org/2000/svg" flood-color="#000" flood-opacity=".65"/><feComposite xmlns="http://www.w3.org/2000/svg" in2="pf_100_offsetBlur" operator="in" result="pf_100_dropShadow"/><feBlend xmlns="http://www.w3.org/2000/svg" in="SourceGraphic" in2="pf_100_dropShadow" mode="normal"/></filter></defs><g filter="url(#3FJuuhDnD2VAkCoteuqPjjFZ7nupHh72)"><path fill="#8E4A1C" stroke="#8E4A1C" stroke-linecap="square" stroke-linejoin="round" stroke-miterlimit="4" stroke-opacity="100" stroke-width="16" d="M 688.875 257.757 L 688.875 257.757 L 631.375 257.757 M 688.875 257.757 L 688.875 257.757 L 619.875 372 M 573.875 314.878 L 573.875 314.878 L 688.875 314.878 M 688.875 257.757 L 688.875 257.757 L 746.375 257.757 M 688.875 257.757 L 688.875 257.757 L 757.875 372 M 803.875 314.878 L 803.875 314.878 L 688.875 314.878" vector-effect="non-scaling-stroke"/></g></g></svg>